<?xml version="1.0" encoding="UTF-8"?>
<svg width="16px" height="16px" viewBox="0 0 16 16" version="1.1" xmlns="http://www.w3.org/2000/svg" xmlns:xlink="http://www.w3.org/1999/xlink">
    <title>icon_底款</title>
    <g id="移动端" stroke="none" stroke-width="1" fill="none" fill-rule="evenodd">
        <g id="藏品展示-3D" transform="translate(-271.000000, -686.000000)">
            <g id="编组-3" transform="translate(16.000000, 666.000000)">
                <g id="编组-7" transform="translate(255.000000, 15.000000)">
                    <g id="icon_底款" transform="translate(0.000000, 5.000000)">
                        <rect id="矩形" fill="#D8D8D8" opacity="0" x="0" y="0" width="16" height="16"></rect>
                        <path d="M14.5260255,13.1351748 L14.5260255,11.3238444 C14.5260255,10.8718332 14.1725291,10.5038407 13.7382207,10.5038407 L10.5563022,10.5038407 C10.3368907,10.5038407 10.1310231,10.392598 10.0048389,10.2057855 C9.81770706,9.92861769 9.70168081,9.60193047 9.6684982,9.2613966 C9.66556369,9.23159108 9.66466076,9.20155088 9.66533795,9.17104129 C9.67752748,8.72912173 9.86330493,6.77815127 10.4924201,6.01635047 C10.9989627,5.33692554 11.2942202,4.49321824 11.3260484,3.60327719 C11.3206308,2.76520243 10.9639742,1.92759705 10.3475001,1.33571115 C9.73260609,0.745468073 8.9034924,0.444831341 8.06647808,0.508901464 C8.03306974,0.511717733 7.99988713,0.511483044 7.9664788,0.509136153 C7.12652996,0.441780383 6.28816125,0.749457787 5.67213858,1.34603747 C5.05431005,1.94472935 4.70149091,2.79007947 4.70374823,3.6654698 C4.73760803,4.52537065 5.03309124,5.36532292 5.55791818,6.06892083 C6.17439232,6.80725272 6.35384927,8.76596791 6.36400721,9.20976499 C6.36468441,9.23534611 6.36378148,9.26116191 6.36174989,9.28650833 C6.33353339,9.62610345 6.21682993,9.95631101 6.02405479,10.2412236 C5.8977913,10.4275668 5.69228323,10.5384683 5.47304294,10.5385747 L2.29135016,10.5385747 C1.85704176,10.5385747 1.50354543,10.9065672 1.50354543,11.358813 L1.50331969,13.1351748 L14.5260255,13.1351748 Z" id="路径" stroke="#FFFFFF" stroke-width="0.705882353" fill-rule="nonzero"></path>
                        <rect id="矩形" fill="#FFFFFF" x="1" y="14.5888685" width="14" height="1" rx="0.5"></rect>
                    </g>
                </g>
            </g>
        </g>
    </g>
</svg>