{
	"asset" : {
		"generator" : "FME 2020.0.0.0",
		"version" : "2.0"
	},
	"materials" : [
		{
			"name" : "default_material",
			"pbrMetallicRoughness" : {
				"baseColorFactor" : [ 0.8, 0.8, 0.8, 1 ],
				"roughnessFactor" : 0.30000000000000004,
				"metallicFactor" : 0.5
			}
		}
	],
	"meshes" : [
		{
			"primitives" : [
				{
					"attributes" : {
						"NORMAL" : 1,
						"POSITION" : 0,
						"TEXCOORD_0" : 2
					},
					"indices" : 3,
					"mode" : 4
				}
			]
		}
	],
	"nodes" : [
		{
			"matrix" : [ 1, 0, 0, 0, 0, 0, -1, 0, 0, 1, 0, 0, 0, 0, 0, 1 ],
			"mesh" : 0
		}
	],
	"scenes" : [
		{
			"nodes" : [ 0 ]
		}
	],
	"scene" : 0,
	"accessors" : [
		{
			"bufferView" : 0,
			"byteOffset" : 0,
			"componentType" : 5126,
			"count" : 6024,
			"type" : "VEC3",
			"min" : [ -148.6804962158203, -91.0915756225586, -95.64840698242188 ],
			"max" : [ 151.4082794189453, 88.29228973388672, 83.34368896484375 ]
		},
		{
			"bufferView" : 1,
			"byteOffset" : 0,
			"componentType" : 5126,
			"count" : 6024,
			"type" : "VEC3",
			"min" : [ -0.9999995827674866, -0.9996998310089111, -0.9999480843544006 ],
			"max" : [ 0.9999896287918091, 0.9999341368675232, 0.9997478723526001 ]
		},
		{
			"bufferView" : 2,
			"byteOffset" : 0,
			"componentType" : 5126,
			"count" : 6024,
			"type" : "VEC2",
			"min" : [ 0.001953125, 0.028406202793121338 ],
			"max" : [ 0.9747896790504456, 0.998046875 ]
		},
		{
			"bufferView" : 3,
			"byteOffset" : 0,
			"componentType" : 5123,
			"count" : 33372,
			"type" : "SCALAR",
			"min" : [ 0 ],
			"max" : [ 6023 ]
		}
	],
	"bufferViews" : [
		{
			"buffer" : 0,
			"byteOffset" : 0,
			"byteLength" : 72288,
			"target" : 34962
		},
		{
			"buffer" : 0,
			"byteOffset" : 72288,
			"byteLength" : 72288,
			"target" : 34962
		},
		{
			"buffer" : 0,
			"byteOffset" : 144576,
			"byteLength" : 48192,
			"target" : 34962
		},
		{
			"buffer" : 0,
			"byteOffset" : 192768,
			"byteLength" : 66744,
			"target" : 34963
		}
	],
	"buffers" : [
		{
			"uri" : "data:application/octet-stream;base64,",
			"byteLength" : 259512
		}
	]
}