<svg xmlns="http://www.w3.org/2000/svg" width="16" height="16" xmlns:v="https://vecta.io/nano"><path d="M9.194 12.2c0 1.66 1.346 3.006 3.006 3.006s3.006-1.346 3.006-3.006S13.86 9.194 12.2 9.194H9.648a.45.45 0 0 0-.454.454V12.2h0zM12.2 8.4a3.8 3.8 0 1 1 0 7.6 3.8 3.8 0 0 1-3.8-3.8V9.648c-.001-.331.131-.649.365-.883s.552-.365.883-.365H12.2h0zm-4.6 3.8A3.8 3.8 0 0 1 3.8 16a3.8 3.8 0 1 1 0-7.6h2.552c.331-.001.649.131.883.365s.365.552.365.883V12.2zM3.8 9.194C2.14 9.194.794 10.54.794 12.2S2.14 15.206 3.8 15.206 6.806 13.86 6.806 12.2V9.648a.45.45 0 0 0-.454-.454H3.8h0zM8.4 3.8A3.8 3.8 0 1 1 16 3.8a3.8 3.8 0 0 1-3.8 3.8H9.648c-.331.001-.649-.131-.883-.365s-.365-.552-.365-.883V3.8h0zm3.8 3.006c1.66 0 3.006-1.346 3.006-3.006S13.86.794 12.2.794 9.194 2.14 9.194 3.8v2.552a.45.45 0 0 0 .454.454H12.2h0zM6.806 3.8C6.806 2.14 5.46.794 3.8.794S.794 2.14.794 3.8 2.14 6.806 3.8 6.806h2.552a.45.45 0 0 0 .454-.454V3.8zM3.8 7.6A3.8 3.8 0 0 1 0 3.8a3.8 3.8 0 1 1 7.6 0v2.552c.001.331-.131.649-.365.883s-.552.365-.883.365H3.8z" fill="#fff"/></svg>