<svg xmlns="http://www.w3.org/2000/svg" xmlns:xlink="http://www.w3.org/1999/xlink" width="18" height="15" xmlns:v="https://vecta.io/nano"><g fill="#fff"><path d="M16.65 15a.52.52 0 0 1-.214-.055l-1.181-.607a6.09 6.09 0 0 1-2.767.662c-3.037 0-5.512-2.173-5.512-4.853s2.475-4.853 5.512-4.853S18 7.467 18 10.147c0 1.07-.405 2.118-1.148 2.967l.236 1.379c.034.165-.045.331-.18.43-.079.044-.169.077-.259.077h0zm-4.162-8.824c-2.542 0-4.613 1.776-4.613 3.971s2.07 3.971 4.613 3.971a5.13 5.13 0 0 0 2.542-.662c.135-.077.304-.077.439-.011l.585.298-.124-.706a.46.46 0 0 1 .113-.375c.675-.706 1.058-1.61 1.058-2.526 0-2.184-2.07-3.96-4.613-3.96h0zm-2.7 2.747a.66.66 0 0 0 .337.573.69.69 0 0 0 .675 0 .66.66 0 0 0 .337-.573.66.66 0 0 0-.337-.573.69.69 0 0 0-.675 0 .66.66 0 0 0-.337.573zm4.05 0a.67.67 0 0 0 .675.662.67.67 0 0 0 .675-.662.67.67 0 0 0-.675-.662.67.67 0 0 0-.675.662z"/><use xlink:href="#B"/><use xlink:href="#B" x="4.725"/><path d="M1.553 11.669a.49.49 0 0 1-.27-.088c-.135-.099-.203-.265-.18-.43l.304-1.721C.495 8.404 0 7.136 0 5.835 0 2.614 2.981 0 6.638 0c1.744 0 3.386.585 4.635 1.665 1.26 1.081 1.969 2.526 2.002 4.081 0 .121-.045.243-.135.331a.43.43 0 0 1-.338.121c-.113-.011-.214-.011-.304-.011-2.542 0-4.612 1.776-4.612 3.971 0 .298.045.607.124.904.034.121.011.254-.056.364s-.191.176-.315.188c-.326.044-.652.066-.979.066-1.204 0-2.363-.287-3.386-.816l-1.485.772c-.09.011-.169.033-.236.033zm1.699-1.765a.52.52 0 0 1 .225.055 6.39 6.39 0 0 0 3.544.805 3.94 3.94 0 0 1-.045-.629c0-2.636 2.396-4.787 5.366-4.853C12.026 2.813 9.574.871 6.638.871 3.476.871.9 3.088.9 5.824c0 1.147.472 2.272 1.316 3.154.101.099.135.243.112.375l-.18 1.059.9-.463c.067-.022.135-.044.202-.044h0z"/></g><defs ><path id="B" d="M3.487 3.96a.77.77 0 0 0 .394.669.8.8 0 0 0 .788 0 .77.77 0 0 0 .394-.669.77.77 0 0 0-.394-.669.8.8 0 0 0-.788 0 .77.77 0 0 0-.394.669z"/></defs></svg>