<svg xmlns="http://www.w3.org/2000/svg" width="24" height="24" xmlns:v="https://vecta.io/nano"><path d="M12 0C5.383 0 0 5.384 0 12s5.384 12 12 12 12-5.384 12-12S18.617 0 12 0zm0 23.006A11.02 11.02 0 0 1 .995 12 11.02 11.02 0 0 1 12 .994 11.02 11.02 0 0 1 23.005 12 11.02 11.02 0 0 1 12 23.006zm2.337-10.802h0c1.127-.754 1.87-2.039 1.87-3.497A4.21 4.21 0 0 0 12.001 4.5a4.21 4.21 0 0 0-4.207 4.207 4.2 4.2 0 0 0 1.87 3.497 6.38 6.38 0 0 0-4.041 5.934.67.67 0 0 0 .667.686c.368 0 .517-.298.517-.667 0-.008-.002-.016-.003-.024.003-2.785 2.411-5.192 5.197-5.192s5.197 2.41 5.197 5.197c0 .004-.035.686.519.686.366 0 .663-.297.663-.662-.001-.011 0-.017 0-.024-.001-2.697-1.677-5.002-4.042-5.934zM12 11.887a3.18 3.18 0 0 1-3.18-3.18A3.18 3.18 0 0 1 12 5.527a3.18 3.18 0 0 1 3.18 3.18 3.18 3.18 0 0 1-3.18 3.18z" fill="#fff"/></svg>