<svg xmlns="http://www.w3.org/2000/svg" width="16" height="16" fill="#fff" xmlns:v="https://vecta.io/nano"><path d="M3.413 10.187L3.84 9.6c.32.32.747.64 1.333.64.64 0 1.067-.373 1.067-.96 0-.64-.427-1.067-1.707-1.067v-.64c1.12 0 1.493-.427 1.493-1.013 0-.48-.32-.8-.853-.8-.427 0-.8.213-1.12.533l-.48-.533c.48-.427 1.013-.693 1.653-.693 1.013 0 1.76.533 1.76 1.44 0 .64-.373 1.12-.96 1.333v.053c.64.16 1.173.64 1.173 1.44 0 1.014-.853 1.654-1.92 1.654-.907-.054-1.493-.374-1.867-.8h0zm4.96-5.014h1.494c1.76 0 2.72.96 2.72 2.827s-1.014 2.88-2.667 2.88H8.373V5.173zm1.387 4.96c1.227 0 1.867-.693 1.867-2.133s-.64-2.08-1.867-2.08h-.533v4.213h.533 0zm5.707-1.6c-.32 0-.534-.266-.534-.533 0-3.36-2.453-6.187-5.653-6.773l1.173 1.387c.214.213.16.587-.053.8-.267.16-.64.16-.8-.107L7.573.853c-.16-.16-.16-.373-.053-.587C7.573.107 7.787 0 8 0a7.99 7.99 0 0 1 8 8c0 .32-.267.533-.533.533h0zM8 16a7.99 7.99 0 0 1-8-8c0-.32.267-.533.533-.533s.533.267.533.533c0 3.36 2.453 6.187 5.653 6.773l-1.173-1.386c-.213-.214-.16-.587.053-.8s.587-.16.8.053l2.027 2.453c.16.16.16.374.053.587-.053.213-.267.32-.48.32h0z"/></svg>